<?xml version="1.0" standalone="no"?><!DOCTYPE svg PUBLIC "-//W3C//DTD SVG 1.1//EN" "http://www.w3.org/Graphics/SVG/1.1/DTD/svg11.dtd"><svg t="1646485876207" class="icon" viewBox="0 0 1107 1024" version="1.1" xmlns="http://www.w3.org/2000/svg" p-id="3759" xmlns:xlink="http://www.w3.org/1999/xlink" width="216.2109375" height="200"><defs><style type="text/css"></style></defs><path d="M1106.667243 262.227027v636.872649c0 28.810378-10.018595 53.192649-30.166486 73.34054-20.203243 20.175568-44.668541 30.166486-73.368216 30.166487H104.890811c-28.810378 0-53.303351-9.990919-73.478919-30.166487a100.075243 100.075243 0 0 1-30.166487-73.451243V346.333405a99.023568 99.023568 0 0 1 30.166487-72.371891A102.372324 102.372324 0 0 1 103.783784 242.715676h34.511567V104.614054c0-28.810378 10.24-53.192649 30.775352-73.34054C189.606054 11.125622 213.849946 1.107027 241.940757 1.107027l780.481729 155.45427c38.828973 10.765838 62.574703 28.090811 71.23719 51.836541 8.662486 23.496649 13.007568 41.541189 13.007567 53.801513zM207.429189 104.614054v138.156973h761.081081c13.588757 0.747243 22.611027-2.214054 26.956108-8.662486l6.420757-9.631136-762.188108-154.374919a34.732973 34.732973 0 0 0-23.247568 10.765838 33.349189 33.349189 0 0 0-9.02227 23.74573z m830.076541 794.457946V277.31027c0 11.513081-7.417081 20.175568-22.140541 25.849081-14.723459 5.811892-30.443243 8.662486-46.993297 8.662487H104.890811c-9.132973-0.110703-17.933838 3.597838-24.243892 10.267676a32.795676 32.795676 0 0 0-10.267676 24.354594v552.683243c-0.110703 9.132973 3.597838 17.906162 10.267676 24.216217 6.310054 6.669838 15.083243 10.406054 24.243892 10.267675H1002.966486c9.160649 0.138378 17.933838-3.597838 24.243892-10.24 6.697514-6.33773 10.406054-15.110919 10.267676-24.271567zM208.425514 553.624216c18.681081 0 34.871351 6.808216 48.598486 20.535352 13.727135 13.616432 20.535351 29.945081 20.535351 48.626162 0 19.400649-6.808216 35.729297-20.535351 49.096648a66.975135 66.975135 0 0 1-48.598486 19.926487c-19.428324 0-35.756973-6.697514-49.124325-19.926487a67.002811 67.002811 0 0 1-20.037189-49.096648c0-18.681081 6.697514-34.871351 20.037189-48.626162a66.200216 66.200216 0 0 1 49.124325-20.535352z" p-id="3760"></path></svg>